<mxfile host="app.diagrams.net" agent="Mozilla/5.0 (X11; Linux x86_64) AppleWebKit/537.36 (KHTML, like Gecko) Chrome/128.0.0.0 Safari/537.36" version="24.7.17">
  <diagram name="第 1 页" id="JhMUBH9sq0BLtiTWMzek">
    <mxGraphModel dx="846" dy="406" grid="1" gridSize="10" guides="1" tooltips="1" connect="1" arrows="1" fold="1" page="1" pageScale="1" pageWidth="827" pageHeight="1169" math="0" shadow="0">
      <root>
        <mxCell id="0" />
        <mxCell id="1" parent="0" />
        <mxCell id="XZPCSpWJF6Tx8EN4Xs06-63" value="" style="rounded=0;whiteSpace=wrap;html=1;fillColor=#fff2cc;strokeColor=#d6b656;" vertex="1" parent="1">
          <mxGeometry x="20" y="570" width="550" height="370" as="geometry" />
        </mxCell>
        <mxCell id="XZPCSpWJF6Tx8EN4Xs06-10" value="" style="shape=image;verticalLabelPosition=bottom;labelBackgroundColor=default;verticalAlign=top;aspect=fixed;imageAspect=0;image=https://raw.githubusercontent.com/kudzaiprichard/springboot-jwt-auth/refs/heads/main/images/sequence-diagram.png;" vertex="1" parent="1">
          <mxGeometry x="310" width="564.62" height="420" as="geometry" />
        </mxCell>
        <mxCell id="XZPCSpWJF6Tx8EN4Xs06-29" value="开始" style="strokeWidth=2;html=1;shape=mxgraph.flowchart.terminator;whiteSpace=wrap;" vertex="1" parent="1">
          <mxGeometry x="30" y="350" width="80" height="40" as="geometry" />
        </mxCell>
        <mxCell id="XZPCSpWJF6Tx8EN4Xs06-30" value="" style="rounded=0;whiteSpace=wrap;html=1;" vertex="1" parent="1">
          <mxGeometry x="20" y="435" width="100" height="50" as="geometry" />
        </mxCell>
        <mxCell id="XZPCSpWJF6Tx8EN4Xs06-31" value="Client" style="shape=umlLifeline;perimeter=lifelinePerimeter;whiteSpace=wrap;html=1;container=1;dropTarget=0;collapsible=0;recursiveResize=0;outlineConnect=0;portConstraint=eastwest;newEdgeStyle={&quot;curved&quot;:0,&quot;rounded&quot;:0};" vertex="1" parent="1">
          <mxGeometry x="70" y="640" width="100" height="300" as="geometry" />
        </mxCell>
        <mxCell id="XZPCSpWJF6Tx8EN4Xs06-36" value="" style="html=1;points=[[0,0,0,0,5],[0,1,0,0,-5],[1,0,0,0,5],[1,1,0,0,-5]];perimeter=orthogonalPerimeter;outlineConnect=0;targetShapes=umlLifeline;portConstraint=eastwest;newEdgeStyle={&quot;curved&quot;:0,&quot;rounded&quot;:0};" vertex="1" parent="XZPCSpWJF6Tx8EN4Xs06-31">
          <mxGeometry x="45" y="60" width="10" height="200" as="geometry" />
        </mxCell>
        <mxCell id="XZPCSpWJF6Tx8EN4Xs06-42" style="edgeStyle=orthogonalEdgeStyle;rounded=0;orthogonalLoop=1;jettySize=auto;html=1;curved=0;exitX=1;exitY=0;exitDx=0;exitDy=5;exitPerimeter=0;entryX=0;entryY=0;entryDx=0;entryDy=5;entryPerimeter=0;" edge="1" parent="1">
          <mxGeometry relative="1" as="geometry">
            <mxPoint x="125" y="711" as="sourcePoint" />
            <mxPoint x="409" y="711" as="targetPoint" />
          </mxGeometry>
        </mxCell>
        <mxCell id="XZPCSpWJF6Tx8EN4Xs06-35" value="Server" style="shape=umlLifeline;perimeter=lifelinePerimeter;whiteSpace=wrap;html=1;container=1;dropTarget=0;collapsible=0;recursiveResize=0;outlineConnect=0;portConstraint=eastwest;newEdgeStyle={&quot;curved&quot;:0,&quot;rounded&quot;:0};" vertex="1" parent="1">
          <mxGeometry x="364" y="640" width="100" height="300" as="geometry" />
        </mxCell>
        <mxCell id="XZPCSpWJF6Tx8EN4Xs06-37" value="" style="html=1;points=[[0,0,0,0,5],[0,1,0,0,-5],[1,0,0,0,5],[1,1,0,0,-5]];perimeter=orthogonalPerimeter;outlineConnect=0;targetShapes=umlLifeline;portConstraint=eastwest;newEdgeStyle={&quot;curved&quot;:0,&quot;rounded&quot;:0};" vertex="1" parent="XZPCSpWJF6Tx8EN4Xs06-35">
          <mxGeometry x="45" y="60" width="10" height="200" as="geometry" />
        </mxCell>
        <mxCell id="XZPCSpWJF6Tx8EN4Xs06-45" style="edgeStyle=orthogonalEdgeStyle;rounded=0;orthogonalLoop=1;jettySize=auto;html=1;curved=0;exitX=1;exitY=0;exitDx=0;exitDy=5;exitPerimeter=0;" edge="1" parent="XZPCSpWJF6Tx8EN4Xs06-35" source="XZPCSpWJF6Tx8EN4Xs06-37" target="XZPCSpWJF6Tx8EN4Xs06-37">
          <mxGeometry relative="1" as="geometry">
            <Array as="points">
              <mxPoint x="55" y="80" />
              <mxPoint x="126" y="80" />
              <mxPoint x="126" y="110" />
            </Array>
          </mxGeometry>
        </mxCell>
        <mxCell id="XZPCSpWJF6Tx8EN4Xs06-43" value="&quot;/login&quot;" style="text;html=1;align=center;verticalAlign=middle;resizable=0;points=[];autosize=1;strokeColor=none;fillColor=none;" vertex="1" parent="1">
          <mxGeometry x="120" y="680" width="60" height="30" as="geometry" />
        </mxCell>
        <mxCell id="XZPCSpWJF6Tx8EN4Xs06-46" value="Verify verification code" style="text;html=1;align=center;verticalAlign=middle;resizable=0;points=[];autosize=1;strokeColor=none;fillColor=none;" vertex="1" parent="1">
          <mxGeometry x="430" y="718" width="140" height="30" as="geometry" />
        </mxCell>
        <mxCell id="XZPCSpWJF6Tx8EN4Xs06-49" style="edgeStyle=orthogonalEdgeStyle;rounded=0;orthogonalLoop=1;jettySize=auto;html=1;curved=0;" edge="1" parent="1" target="XZPCSpWJF6Tx8EN4Xs06-37">
          <mxGeometry relative="1" as="geometry">
            <mxPoint x="419" y="760" as="sourcePoint" />
            <mxPoint x="419" y="780" as="targetPoint" />
            <Array as="points">
              <mxPoint x="419" y="770" />
              <mxPoint x="500" y="770" />
              <mxPoint x="500" y="790" />
            </Array>
          </mxGeometry>
        </mxCell>
        <mxCell id="XZPCSpWJF6Tx8EN4Xs06-53" value="Verify user validity" style="text;html=1;align=center;verticalAlign=middle;resizable=0;points=[];autosize=1;strokeColor=none;fillColor=none;" vertex="1" parent="1">
          <mxGeometry x="430" y="765" width="120" height="30" as="geometry" />
        </mxCell>
        <mxCell id="XZPCSpWJF6Tx8EN4Xs06-54" style="edgeStyle=orthogonalEdgeStyle;rounded=0;orthogonalLoop=1;jettySize=auto;html=1;curved=0;elbow=vertical;" edge="1" parent="1" target="XZPCSpWJF6Tx8EN4Xs06-37">
          <mxGeometry relative="1" as="geometry">
            <mxPoint x="419" y="800" as="sourcePoint" />
            <mxPoint x="419" y="840" as="targetPoint" />
            <Array as="points">
              <mxPoint x="490" y="800" />
              <mxPoint x="490" y="820" />
            </Array>
          </mxGeometry>
        </mxCell>
        <mxCell id="XZPCSpWJF6Tx8EN4Xs06-59" value="Generate Token" style="text;html=1;align=center;verticalAlign=middle;resizable=0;points=[];autosize=1;strokeColor=none;fillColor=none;" vertex="1" parent="1">
          <mxGeometry x="430" y="795" width="110" height="30" as="geometry" />
        </mxCell>
        <mxCell id="XZPCSpWJF6Tx8EN4Xs06-60" style="edgeStyle=orthogonalEdgeStyle;rounded=0;orthogonalLoop=1;jettySize=auto;html=1;curved=0;exitX=0;exitY=1;exitDx=0;exitDy=-5;exitPerimeter=0;entryX=1;entryY=1;entryDx=0;entryDy=-5;entryPerimeter=0;" edge="1" parent="1">
          <mxGeometry relative="1" as="geometry">
            <mxPoint x="408" y="849" as="sourcePoint" />
            <mxPoint x="124" y="849" as="targetPoint" />
          </mxGeometry>
        </mxCell>
        <mxCell id="XZPCSpWJF6Tx8EN4Xs06-61" value="return response" style="text;html=1;align=center;verticalAlign=middle;resizable=0;points=[];autosize=1;strokeColor=none;fillColor=none;" vertex="1" parent="1">
          <mxGeometry x="310" y="825" width="110" height="30" as="geometry" />
        </mxCell>
        <mxCell id="XZPCSpWJF6Tx8EN4Xs06-65" value="登录操作时序图" style="text;html=1;align=center;verticalAlign=middle;whiteSpace=wrap;rounded=0;fontSize=15;" vertex="1" parent="1">
          <mxGeometry x="30" y="585" width="140" height="30" as="geometry" />
        </mxCell>
      </root>
    </mxGraphModel>
  </diagram>
</mxfile>
